<svg width="152" height="52" viewBox="0 0 152 52" fill="none" xmlns="http://www.w3.org/2000/svg">
<path d="M6.76 23.24C5.82667 23.24 4.96 23.0667 4.16 22.72C3.36 22.36 2.68 21.8733 2.12 21.26C1.56 20.6467 1.14667 19.94 0.88 19.14L2.88 18.3C3.24 19.22 3.76667 19.9267 4.46 20.42C5.15333 20.9133 5.95333 21.16 6.86 21.16C7.39333 21.16 7.86 21.08 8.26 20.92C8.66 20.7467 8.96667 20.5067 9.18 20.2C9.40667 19.8933 9.52 19.54 9.52 19.14C9.52 18.5933 9.36667 18.16 9.06 17.84C8.75333 17.52 8.3 17.2667 7.7 17.08L4.9 16.2C3.78 15.8533 2.92667 15.3267 2.34 14.62C1.75333 13.9 1.46 13.06 1.46 12.1C1.46 11.26 1.66667 10.5267 2.08 9.9C2.49333 9.26 3.06 8.76 3.78 8.4C4.51333 8.04 5.34667 7.86 6.28 7.86C7.17333 7.86 7.98667 8.02 8.72 8.34C9.45333 8.64667 10.08 9.07333 10.6 9.62C11.1333 10.1667 11.52 10.8 11.76 11.52L9.8 12.38C9.50667 11.5933 9.04667 10.9867 8.42 10.56C7.80667 10.1333 7.09333 9.92 6.28 9.92C5.78667 9.92 5.35333 10.0067 4.98 10.18C4.60667 10.34 4.31333 10.58 4.1 10.9C3.9 11.2067 3.8 11.5667 3.8 11.98C3.8 12.46 3.95333 12.8867 4.26 13.26C4.56667 13.6333 5.03333 13.9133 5.66 14.1L8.26 14.92C9.44667 15.28 10.34 15.8 10.94 16.48C11.54 17.1467 11.84 17.98 11.84 18.98C11.84 19.8067 11.62 20.54 11.18 21.18C10.7533 21.82 10.16 22.3267 9.4 22.7C8.64 23.06 7.76 23.24 6.76 23.24Z" fill="#9747FF"/>
<path d="M18.3492 23.12C17.2159 23.12 16.3359 22.8 15.7092 22.16C15.0826 21.52 14.7692 20.62 14.7692 19.46V14.22H12.8692V12.18H13.1692C13.6759 12.18 14.0692 12.0333 14.3492 11.74C14.6292 11.4467 14.7692 11.0467 14.7692 10.54V9.7H17.0292V12.18H19.4892V14.22H17.0292V19.36C17.0292 19.7333 17.0892 20.0533 17.2092 20.32C17.3292 20.5733 17.5226 20.7733 17.7892 20.92C18.0559 21.0533 18.4026 21.12 18.8292 21.12C18.9359 21.12 19.0559 21.1133 19.1892 21.1C19.3226 21.0867 19.4492 21.0733 19.5692 21.06V23C19.3826 23.0267 19.1759 23.0533 18.9492 23.08C18.7226 23.1067 18.5226 23.12 18.3492 23.12ZM26.0594 23.24C24.9794 23.24 24.0194 22.9933 23.1794 22.5C22.3527 21.9933 21.706 21.3133 21.2394 20.46C20.7727 19.5933 20.5394 18.6267 20.5394 17.56C20.5394 16.4667 20.7727 15.5 21.2394 14.66C21.7194 13.82 22.3594 13.16 23.1594 12.68C23.9594 12.1867 24.866 11.94 25.8794 11.94C26.6927 11.94 27.4194 12.08 28.0594 12.36C28.6994 12.64 29.2394 13.0267 29.6794 13.52C30.1194 14 30.4527 14.5533 30.6794 15.18C30.9194 15.8067 31.0394 16.4733 31.0394 17.18C31.0394 17.3533 31.0327 17.5333 31.0194 17.72C31.006 17.9067 30.9794 18.08 30.9394 18.24H22.3194V16.44H29.6594L28.5794 17.26C28.7127 16.6067 28.666 16.0267 28.4394 15.52C28.226 15 27.8927 14.5933 27.4394 14.3C26.9994 13.9933 26.4794 13.84 25.8794 13.84C25.2794 13.84 24.746 13.9933 24.2794 14.3C23.8127 14.5933 23.4527 15.02 23.1994 15.58C22.946 16.1267 22.846 16.7933 22.8994 17.58C22.8327 18.3133 22.9327 18.9533 23.1994 19.5C23.4794 20.0467 23.866 20.4733 24.3594 20.78C24.866 21.0867 25.4394 21.24 26.0794 21.24C26.7327 21.24 27.286 21.0933 27.7394 20.8C28.206 20.5067 28.5727 20.1267 28.8394 19.66L30.6794 20.56C30.466 21.0667 30.1327 21.5267 29.6794 21.94C29.2394 22.34 28.706 22.66 28.0794 22.9C27.466 23.1267 26.7927 23.24 26.0594 23.24ZM32.645 23V7.86H34.905V23H32.645ZM36.9473 23V7.86H39.2073V23H36.9473ZM44.4897 23.24C43.7564 23.24 43.1097 23.1133 42.5497 22.86C42.003 22.5933 41.5764 22.2333 41.2697 21.78C40.963 21.3133 40.8097 20.7667 40.8097 20.14C40.8097 19.5533 40.9364 19.0267 41.1897 18.56C41.4564 18.0933 41.863 17.7 42.4097 17.38C42.9564 17.06 43.643 16.8333 44.4697 16.7L48.2297 16.08V17.86L44.9097 18.44C44.3097 18.5467 43.8697 18.74 43.5897 19.02C43.3097 19.2867 43.1697 19.6333 43.1697 20.06C43.1697 20.4733 43.323 20.8133 43.6297 21.08C43.9497 21.3333 44.3564 21.46 44.8497 21.46C45.463 21.46 45.9964 21.3267 46.4497 21.06C46.9164 20.7933 47.2764 20.44 47.5297 20C47.783 19.5467 47.9097 19.0467 47.9097 18.5V15.72C47.9097 15.1867 47.7097 14.7533 47.3097 14.42C46.923 14.0733 46.403 13.9 45.7497 13.9C45.1497 13.9 44.623 14.06 44.1697 14.38C43.7297 14.6867 43.403 15.0867 43.1897 15.58L41.3097 14.64C41.5097 14.1067 41.8364 13.64 42.2897 13.24C42.743 12.8267 43.2697 12.5067 43.8697 12.28C44.483 12.0533 45.1297 11.94 45.8097 11.94C46.663 11.94 47.4164 12.1 48.0697 12.42C48.7364 12.74 49.2497 13.1867 49.6097 13.76C49.983 14.32 50.1697 14.9733 50.1697 15.72V23H48.0097V21.04L48.4697 21.1C48.2164 21.54 47.8897 21.92 47.4897 22.24C47.103 22.56 46.6564 22.8067 46.1497 22.98C45.6564 23.1533 45.103 23.24 44.4897 23.24ZM52.2122 23V12.18H54.3722V14.36L54.1722 14.04C54.4122 13.3333 54.7989 12.8267 55.3322 12.52C55.8655 12.2 56.5055 12.04 57.2522 12.04H57.9122V14.1H56.9722C56.2255 14.1 55.6189 14.3333 55.1522 14.8C54.6989 15.2533 54.4722 15.9067 54.4722 16.76V23H52.2122ZM67.5544 23.24C66.4477 23.24 65.461 23.0067 64.5944 22.54C63.741 22.0733 63.0677 21.4333 62.5744 20.62C62.0944 19.8067 61.8544 18.88 61.8544 17.84V8.1H64.2144V17.74C64.2144 18.3933 64.3544 18.9733 64.6344 19.48C64.9277 19.9867 65.321 20.38 65.8144 20.66C66.321 20.94 66.901 21.08 67.5544 21.08C68.221 21.08 68.801 20.94 69.2944 20.66C69.801 20.38 70.1944 19.9867 70.4744 19.48C70.7677 18.9733 70.9144 18.3933 70.9144 17.74V8.1H73.2544V17.84C73.2544 18.88 73.0144 19.8067 72.5344 20.62C72.0544 21.4333 71.381 22.0733 70.5144 22.54C69.661 23.0067 68.6744 23.24 67.5544 23.24ZM75.3927 23V12.18H77.5527V14.3L77.2927 14.02C77.5593 13.34 77.986 12.8267 78.5727 12.48C79.1593 12.12 79.8393 11.94 80.6127 11.94C81.4127 11.94 82.1193 12.1133 82.7327 12.46C83.346 12.8067 83.826 13.2867 84.1727 13.9C84.5193 14.5133 84.6927 15.22 84.6927 16.02V23H82.4527V16.62C82.4527 16.0733 82.3527 15.6133 82.1527 15.24C81.9527 14.8533 81.666 14.56 81.2927 14.36C80.9327 14.1467 80.5193 14.04 80.0527 14.04C79.586 14.04 79.166 14.1467 78.7927 14.36C78.4327 14.56 78.1527 14.8533 77.9527 15.24C77.7527 15.6267 77.6527 16.0867 77.6527 16.62V23H75.3927ZM86.5114 23V12.18H88.7714V23H86.5114ZM86.5114 10.7V8.1H88.7714V10.7H86.5114ZM93.9538 23L89.7138 12.18H92.1738L95.4338 21H94.5338L97.7938 12.18H100.274L96.0138 23H93.9538ZM106.095 23.24C105.015 23.24 104.055 22.9933 103.215 22.5C102.388 21.9933 101.741 21.3133 101.275 20.46C100.808 19.5933 100.575 18.6267 100.575 17.56C100.575 16.4667 100.808 15.5 101.275 14.66C101.755 13.82 102.395 13.16 103.195 12.68C103.995 12.1867 104.901 11.94 105.915 11.94C106.728 11.94 107.455 12.08 108.095 12.36C108.735 12.64 109.275 13.0267 109.715 13.52C110.155 14 110.488 14.5533 110.715 15.18C110.955 15.8067 111.075 16.4733 111.075 17.18C111.075 17.3533 111.068 17.5333 111.055 17.72C111.041 17.9067 111.015 18.08 110.975 18.24H102.355V16.44H109.695L108.615 17.26C108.748 16.6067 108.701 16.0267 108.475 15.52C108.261 15 107.928 14.5933 107.475 14.3C107.035 13.9933 106.515 13.84 105.915 13.84C105.315 13.84 104.781 13.9933 104.315 14.3C103.848 14.5933 103.488 15.02 103.235 15.58C102.981 16.1267 102.881 16.7933 102.935 17.58C102.868 18.3133 102.968 18.9533 103.235 19.5C103.515 20.0467 103.901 20.4733 104.395 20.78C104.901 21.0867 105.475 21.24 106.115 21.24C106.768 21.24 107.321 21.0933 107.775 20.8C108.241 20.5067 108.608 20.1267 108.875 19.66L110.715 20.56C110.501 21.0667 110.168 21.5267 109.715 21.94C109.275 22.34 108.741 22.66 108.115 22.9C107.501 23.1267 106.828 23.24 106.095 23.24ZM112.68 23V12.18H114.84V14.36L114.64 14.04C114.88 13.3333 115.267 12.8267 115.8 12.52C116.333 12.2 116.973 12.04 117.72 12.04H118.38V14.1H117.44C116.693 14.1 116.087 14.3333 115.62 14.8C115.167 15.2533 114.94 15.9067 114.94 16.76V23H112.68ZM123.326 23.24C122.22 23.24 121.246 22.9667 120.406 22.42C119.58 21.8733 119 21.14 118.666 20.22L120.406 19.4C120.7 20.0133 121.1 20.5 121.606 20.86C122.126 21.22 122.7 21.4 123.326 21.4C123.86 21.4 124.293 21.28 124.626 21.04C124.96 20.8 125.126 20.4733 125.126 20.06C125.126 19.7933 125.053 19.58 124.906 19.42C124.76 19.2467 124.573 19.1067 124.346 19C124.133 18.8933 123.913 18.8133 123.686 18.76L121.986 18.28C121.053 18.0133 120.353 17.6133 119.886 17.08C119.433 16.5333 119.206 15.9 119.206 15.18C119.206 14.5267 119.373 13.96 119.706 13.48C120.04 12.9867 120.5 12.6067 121.086 12.34C121.673 12.0733 122.333 11.94 123.066 11.94C124.053 11.94 124.933 12.1867 125.706 12.68C126.48 13.16 127.026 13.8333 127.346 14.7L125.606 15.52C125.393 15 125.053 14.5867 124.586 14.28C124.133 13.9733 123.62 13.82 123.046 13.82C122.553 13.82 122.16 13.94 121.866 14.18C121.573 14.4067 121.426 14.7067 121.426 15.08C121.426 15.3333 121.493 15.5467 121.626 15.72C121.76 15.88 121.933 16.0133 122.146 16.12C122.36 16.2133 122.58 16.2933 122.806 16.36L124.566 16.88C125.46 17.1333 126.146 17.5333 126.626 18.08C127.106 18.6133 127.346 19.2533 127.346 20C127.346 20.64 127.173 21.2067 126.826 21.7C126.493 22.18 126.026 22.56 125.426 22.84C124.826 23.1067 124.126 23.24 123.326 23.24ZM128.961 23V12.18H131.221V23H128.961ZM128.961 10.7V8.1H131.221V10.7H128.961ZM137.943 23.12C136.81 23.12 135.93 22.8 135.303 22.16C134.676 21.52 134.363 20.62 134.363 19.46V14.22H132.463V12.18H132.763C133.27 12.18 133.663 12.0333 133.943 11.74C134.223 11.4467 134.363 11.0467 134.363 10.54V9.7H136.623V12.18H139.083V14.22H136.623V19.36C136.623 19.7333 136.683 20.0533 136.803 20.32C136.923 20.5733 137.116 20.7733 137.383 20.92C137.65 21.0533 137.996 21.12 138.423 21.12C138.53 21.12 138.65 21.1133 138.783 21.1C138.916 21.0867 139.043 21.0733 139.163 21.06V23C138.976 23.0267 138.77 23.0533 138.543 23.08C138.316 23.1067 138.116 23.12 137.943 23.12ZM141.728 27.42C141.462 27.42 141.195 27.3933 140.928 27.34C140.675 27.3 140.442 27.2333 140.228 27.14V25.2C140.388 25.24 140.582 25.2733 140.808 25.3C141.035 25.34 141.255 25.36 141.468 25.36C142.095 25.36 142.555 25.22 142.848 24.94C143.155 24.6733 143.428 24.2533 143.668 23.68L144.388 22.04L144.348 23.94L139.668 12.18H142.088L145.548 21.2H144.728L148.168 12.18H150.608L145.828 24.18C145.575 24.82 145.255 25.38 144.868 25.86C144.495 26.3533 144.048 26.7333 143.528 27C143.022 27.28 142.422 27.42 141.728 27.42Z" fill="#1A202C"/>
<path d="M0.88 35V27.55H1.68V35H0.88ZM3.02859 35V29.64H3.77859V30.68L3.60859 30.64C3.74193 30.2933 3.95859 30.02 4.25859 29.82C4.56526 29.62 4.91859 29.52 5.31859 29.52C5.69859 29.52 6.03859 29.6067 6.33859 29.78C6.64526 29.9533 6.88526 30.1933 7.05859 30.5C7.23859 30.8 7.32859 31.14 7.32859 31.52V35H6.57859V31.81C6.57859 31.4833 6.51859 31.2067 6.39859 30.98C6.28526 30.7533 6.12193 30.58 5.90859 30.46C5.70193 30.3333 5.46193 30.27 5.18859 30.27C4.91526 30.27 4.67193 30.3333 4.45859 30.46C4.24526 30.58 4.07859 30.7567 3.95859 30.99C3.83859 31.2167 3.77859 31.49 3.77859 31.81V35H3.02859ZM10.321 35.12C9.80768 35.12 9.35768 34.99 8.97102 34.73C8.58435 34.47 8.30435 34.1167 8.13102 33.67L8.76102 33.37C8.91435 33.6967 9.12768 33.9567 9.40102 34.15C9.68102 34.3433 9.98768 34.44 10.321 34.44C10.641 34.44 10.911 34.3633 11.131 34.21C11.351 34.05 11.461 33.8433 11.461 33.59C11.461 33.4033 11.4077 33.2567 11.301 33.15C11.1943 33.0367 11.071 32.95 10.931 32.89C10.791 32.83 10.6677 32.7867 10.561 32.76L9.79102 32.54C9.29768 32.4 8.94102 32.2033 8.72102 31.95C8.50102 31.6967 8.39102 31.4033 8.39102 31.07C8.39102 30.7567 8.47102 30.4833 8.63102 30.25C8.79102 30.0167 9.00768 29.8367 9.28102 29.71C9.55435 29.5833 9.85768 29.52 10.191 29.52C10.6443 29.52 11.0543 29.64 11.421 29.88C11.7943 30.1133 12.0577 30.44 12.211 30.86L11.571 31.16C11.4377 30.86 11.2443 30.6267 10.991 30.46C10.7443 30.2867 10.4677 30.2 10.161 30.2C9.86102 30.2 9.62102 30.2767 9.44102 30.43C9.26102 30.5833 9.17102 30.7767 9.17102 31.01C9.17102 31.19 9.21768 31.3333 9.31102 31.44C9.40435 31.5467 9.51102 31.6267 9.63102 31.68C9.75768 31.7333 9.86768 31.7733 9.96102 31.8L10.851 32.06C11.2843 32.1867 11.621 32.3833 11.861 32.65C12.1077 32.9167 12.231 33.23 12.231 33.59C12.231 33.8833 12.1477 34.1467 11.981 34.38C11.821 34.6133 11.5977 34.7967 11.311 34.93C11.0243 35.0567 10.6943 35.12 10.321 35.12ZM13.2489 37V29.64H13.9989V30.84L13.8789 30.63C14.0922 30.29 14.3756 30.02 14.7289 29.82C15.0889 29.62 15.4989 29.52 15.9589 29.52C16.4656 29.52 16.9156 29.6433 17.3089 29.89C17.7089 30.13 18.0222 30.46 18.2489 30.88C18.4822 31.3 18.5989 31.78 18.5989 32.32C18.5989 32.8533 18.4822 33.3333 18.2489 33.76C18.0222 34.18 17.7089 34.5133 17.3089 34.76C16.9156 35 16.4656 35.12 15.9589 35.12C15.4989 35.12 15.0822 35.0167 14.7089 34.81C14.3422 34.5967 14.0656 34.2967 13.8789 33.91L13.9989 33.8V37H13.2489ZM15.9189 34.37C16.2789 34.37 16.5989 34.28 16.8789 34.1C17.1656 33.92 17.3889 33.6767 17.5489 33.37C17.7156 33.0567 17.7989 32.7067 17.7989 32.32C17.7989 31.9267 17.7156 31.5767 17.5489 31.27C17.3889 30.9633 17.1656 30.72 16.8789 30.54C16.5989 30.36 16.2789 30.27 15.9189 30.27C15.5589 30.27 15.2322 30.36 14.9389 30.54C14.6522 30.72 14.4222 30.9667 14.2489 31.28C14.0822 31.5867 13.9989 31.9333 13.9989 32.32C13.9989 32.7067 14.0822 33.0567 14.2489 33.37C14.4222 33.6767 14.6522 33.92 14.9389 34.1C15.2322 34.28 15.5589 34.37 15.9189 34.37ZM19.6188 35V29.64H20.3688V35H19.6188ZM19.6188 28.65V27.55H20.3688V28.65H19.6188ZM21.604 35V29.64H22.354V30.52L22.254 30.39C22.3807 30.1367 22.5707 29.9367 22.824 29.79C23.084 29.6433 23.3973 29.57 23.764 29.57H24.104V30.32H23.634C23.2473 30.32 22.9373 30.44 22.704 30.68C22.4707 30.92 22.354 31.26 22.354 31.7V35H21.604ZM24.6829 35V29.64H25.4329V35H24.6829ZM24.6829 28.65V27.55H25.4329V28.65H24.6829ZM26.668 35V29.64H27.418V30.68L27.248 30.64C27.3814 30.2933 27.598 30.02 27.898 29.82C28.2047 29.62 28.558 29.52 28.958 29.52C29.338 29.52 29.678 29.6067 29.978 29.78C30.2847 29.9533 30.5247 30.1933 30.698 30.5C30.878 30.8 30.968 31.14 30.968 31.52V35H30.218V31.81C30.218 31.4833 30.158 31.2067 30.038 30.98C29.9247 30.7533 29.7614 30.58 29.548 30.46C29.3414 30.3333 29.1014 30.27 28.828 30.27C28.5547 30.27 28.3114 30.3333 28.098 30.46C27.8847 30.58 27.718 30.7567 27.598 30.99C27.478 31.2167 27.418 31.49 27.418 31.81V35H26.668ZM34.6405 37.2C34.2738 37.2 33.9338 37.1433 33.6205 37.03C33.3138 36.9167 33.0471 36.76 32.8205 36.56C32.6005 36.3667 32.4305 36.14 32.3105 35.88L33.0005 35.51C33.1071 35.7633 33.2971 35.9833 33.5705 36.17C33.8438 36.3567 34.1938 36.45 34.6205 36.45C34.9471 36.45 35.2471 36.3867 35.5205 36.26C35.7938 36.1333 36.0138 35.9467 36.1805 35.7C36.3471 35.4533 36.4305 35.15 36.4305 34.79V33.6L36.5505 33.71C36.3638 34.0967 36.0871 34.3967 35.7205 34.61C35.3538 34.8167 34.9538 34.92 34.5205 34.92C34.0205 34.92 33.5705 34.8 33.1705 34.56C32.7705 34.32 32.4538 33.9967 32.2205 33.59C31.9938 33.1767 31.8805 32.72 31.8805 32.22C31.8805 31.7133 31.9938 31.2567 32.2205 30.85C32.4538 30.4433 32.7671 30.12 33.1605 29.88C33.5605 29.64 34.0138 29.52 34.5205 29.52C34.9538 29.52 35.3471 29.62 35.7005 29.82C36.0605 30.02 36.3438 30.29 36.5505 30.63L36.4305 30.84V29.64H37.1805V34.79C37.1805 35.25 37.0705 35.66 36.8505 36.02C36.6371 36.3867 36.3371 36.6733 35.9505 36.88C35.5705 37.0933 35.1338 37.2 34.6405 37.2ZM34.5605 34.17C34.9071 34.17 35.2205 34.0833 35.5005 33.91C35.7805 33.73 36.0038 33.4933 36.1705 33.2C36.3438 32.9 36.4305 32.5733 36.4305 32.22C36.4305 31.8667 36.3438 31.5433 36.1705 31.25C36.0038 30.95 35.7805 30.7133 35.5005 30.54C35.2205 30.36 34.9071 30.27 34.5605 30.27C34.2071 30.27 33.8871 30.36 33.6005 30.54C33.3138 30.7133 33.0871 30.9467 32.9205 31.24C32.7605 31.5333 32.6805 31.86 32.6805 32.22C32.6805 32.5733 32.7605 32.9 32.9205 33.2C33.0871 33.4933 33.3105 33.73 33.5905 33.91C33.8771 34.0833 34.2005 34.17 34.5605 34.17ZM39.9308 35V27.55H40.6308L43.4308 31.61H43.0408L45.8308 27.55H46.5308V35H45.7308V28.63L45.9908 28.73L43.2508 32.7H43.2108L40.4808 28.73L40.7308 28.63V35H39.9308ZM47.8802 35V29.64H48.6302V35H47.8802ZM47.8802 28.65V27.55H48.6302V28.65H47.8802ZM49.8653 35V29.64H50.6153V30.68L50.4453 30.64C50.5786 30.2933 50.7953 30.02 51.0953 29.82C51.402 29.62 51.7553 29.52 52.1553 29.52C52.5353 29.52 52.8753 29.6067 53.1753 29.78C53.482 29.9533 53.722 30.1933 53.8953 30.5C54.0753 30.8 54.1653 31.14 54.1653 31.52V35H53.4153V31.81C53.4153 31.4833 53.3553 31.2067 53.2353 30.98C53.122 30.7533 52.9586 30.58 52.7453 30.46C52.5386 30.3333 52.2986 30.27 52.0253 30.27C51.752 30.27 51.5086 30.3333 51.2953 30.46C51.082 30.58 50.9153 30.7567 50.7953 30.99C50.6753 31.2167 50.6153 31.49 50.6153 31.81V35H49.8653ZM57.7177 35.12C57.2177 35.12 56.7677 35 56.3677 34.76C55.9677 34.5133 55.6511 34.18 55.4177 33.76C55.1911 33.3333 55.0777 32.8533 55.0777 32.32C55.0777 31.78 55.1911 31.3 55.4177 30.88C55.6511 30.46 55.9644 30.13 56.3577 29.89C56.7577 29.6433 57.2111 29.52 57.7177 29.52C58.1777 29.52 58.5877 29.62 58.9477 29.82C59.3077 30.02 59.5911 30.29 59.7977 30.63L59.6777 30.84V27.43H60.4277V35H59.6777V33.8L59.7977 33.91C59.6111 34.2967 59.3311 34.5967 58.9577 34.81C58.5911 35.0167 58.1777 35.12 57.7177 35.12ZM57.7577 34.37C58.1177 34.37 58.4411 34.28 58.7277 34.1C59.0211 33.92 59.2511 33.6767 59.4177 33.37C59.5911 33.0567 59.6777 32.7067 59.6777 32.32C59.6777 31.9333 59.5911 31.5867 59.4177 31.28C59.2511 30.9667 59.0211 30.72 58.7277 30.54C58.4411 30.36 58.1177 30.27 57.7577 30.27C57.4044 30.27 57.0844 30.36 56.7977 30.54C56.5111 30.72 56.2844 30.9633 56.1177 31.27C55.9577 31.5767 55.8777 31.9267 55.8777 32.32C55.8777 32.7067 55.9577 33.0567 56.1177 33.37C56.2844 33.6767 56.5077 33.92 56.7877 34.1C57.0744 34.28 57.3977 34.37 57.7577 34.37ZM63.5277 35.12C63.0143 35.12 62.5643 34.99 62.1777 34.73C61.791 34.47 61.511 34.1167 61.3377 33.67L61.9677 33.37C62.121 33.6967 62.3343 33.9567 62.6077 34.15C62.8877 34.3433 63.1943 34.44 63.5277 34.44C63.8477 34.44 64.1177 34.3633 64.3377 34.21C64.5577 34.05 64.6677 33.8433 64.6677 33.59C64.6677 33.4033 64.6143 33.2567 64.5077 33.15C64.401 33.0367 64.2777 32.95 64.1377 32.89C63.9977 32.83 63.8743 32.7867 63.7677 32.76L62.9977 32.54C62.5043 32.4 62.1477 32.2033 61.9277 31.95C61.7077 31.6967 61.5977 31.4033 61.5977 31.07C61.5977 30.7567 61.6777 30.4833 61.8377 30.25C61.9977 30.0167 62.2143 29.8367 62.4877 29.71C62.761 29.5833 63.0643 29.52 63.3977 29.52C63.851 29.52 64.261 29.64 64.6277 29.88C65.001 30.1133 65.2643 30.44 65.4177 30.86L64.7777 31.16C64.6443 30.86 64.451 30.6267 64.1977 30.46C63.951 30.2867 63.6743 30.2 63.3677 30.2C63.0677 30.2 62.8277 30.2767 62.6477 30.43C62.4677 30.5833 62.3777 30.7767 62.3777 31.01C62.3777 31.19 62.4243 31.3333 62.5177 31.44C62.611 31.5467 62.7177 31.6267 62.8377 31.68C62.9643 31.7333 63.0743 31.7733 63.1677 31.8L64.0577 32.06C64.491 32.1867 64.8277 32.3833 65.0677 32.65C65.3143 32.9167 65.4377 33.23 65.4377 33.59C65.4377 33.8833 65.3543 34.1467 65.1877 34.38C65.0277 34.6133 64.8043 34.7967 64.5177 34.93C64.231 35.0567 63.901 35.12 63.5277 35.12ZM66.4855 36.3V35.95C66.6855 35.8967 66.8322 35.7933 66.9255 35.64C67.0189 35.4867 67.0655 35.2733 67.0655 35H66.6855V33.9H67.4855V34.74C67.4855 35.1733 67.4022 35.52 67.2355 35.78C67.0689 36.0467 66.8189 36.22 66.4855 36.3ZM72.8701 35.12C72.3967 35.12 71.9667 35.03 71.5801 34.85C71.1934 34.67 70.8667 34.43 70.6001 34.13C70.3334 33.8233 70.1434 33.4867 70.0301 33.12L70.7501 32.85C70.9234 33.3567 71.1934 33.7433 71.5601 34.01C71.9267 34.27 72.3634 34.4 72.8701 34.4C73.1901 34.4 73.4701 34.35 73.7101 34.25C73.9567 34.1433 74.1467 33.9967 74.2801 33.81C74.4134 33.6233 74.4801 33.4067 74.4801 33.16C74.4801 32.7933 74.3801 32.51 74.1801 32.31C73.9801 32.11 73.6934 31.9567 73.3201 31.85L71.9801 31.45C71.4534 31.2967 71.0467 31.04 70.7601 30.68C70.4801 30.32 70.3401 29.91 70.3401 29.45C70.3401 29.0567 70.4367 28.71 70.6301 28.41C70.8234 28.1033 71.0867 27.8633 71.4201 27.69C71.7601 27.5167 72.1434 27.43 72.5701 27.43C73.0167 27.43 73.4167 27.5133 73.7701 27.68C74.1301 27.84 74.4334 28.0533 74.6801 28.32C74.9267 28.5867 75.1034 28.8833 75.2101 29.21L74.5101 29.49C74.3501 29.05 74.1001 28.7167 73.7601 28.49C73.4267 28.2633 73.0334 28.15 72.5801 28.15C72.2934 28.15 72.0401 28.2 71.8201 28.3C71.6067 28.4 71.4401 28.5433 71.3201 28.73C71.2001 28.9167 71.1401 29.1367 71.1401 29.39C71.1401 29.6967 71.2367 29.9733 71.4301 30.22C71.6234 30.46 71.9201 30.64 72.3201 30.76L73.5001 31.11C74.0867 31.2833 74.5301 31.5333 74.8301 31.86C75.1301 32.1867 75.2801 32.5967 75.2801 33.09C75.2801 33.49 75.1767 33.8433 74.9701 34.15C74.7701 34.45 74.4867 34.6867 74.1201 34.86C73.7601 35.0333 73.3434 35.12 72.8701 35.12ZM76.4149 35V27.43H77.1649V30.68L76.9949 30.64C77.1283 30.2933 77.3449 30.02 77.6449 29.82C77.9516 29.62 78.3049 29.52 78.7049 29.52C79.0849 29.52 79.4249 29.6067 79.7249 29.78C80.0316 29.9533 80.2716 30.1933 80.4449 30.5C80.6249 30.8 80.7149 31.14 80.7149 31.52V35H79.9649V31.81C79.9649 31.4833 79.9049 31.2067 79.7849 30.98C79.6649 30.7533 79.4983 30.58 79.2849 30.46C79.0783 30.3333 78.8416 30.27 78.5749 30.27C78.3083 30.27 78.0683 30.3333 77.8549 30.46C77.6416 30.58 77.4716 30.7567 77.3449 30.99C77.2249 31.2167 77.1649 31.49 77.1649 31.81V35H76.4149ZM83.3973 35.12C83.0573 35.12 82.754 35.0567 82.4873 34.93C82.2207 34.7967 82.0107 34.6167 81.8573 34.39C81.704 34.1633 81.6273 33.9033 81.6273 33.61C81.6273 33.33 81.6873 33.0767 81.8073 32.85C81.9273 32.6167 82.114 32.42 82.3673 32.26C82.6207 32.1 82.944 31.9867 83.3373 31.92L85.4373 31.57V32.25L83.5173 32.57C83.1307 32.6367 82.8507 32.76 82.6773 32.94C82.5107 33.12 82.4273 33.3333 82.4273 33.58C82.4273 33.82 82.5207 34.0233 82.7073 34.19C82.9007 34.3567 83.1473 34.44 83.4473 34.44C83.814 34.44 84.134 34.3633 84.4073 34.21C84.6807 34.05 84.894 33.8367 85.0473 33.57C85.2007 33.3033 85.2773 33.0067 85.2773 32.68V31.32C85.2773 31 85.1607 30.74 84.9273 30.54C84.694 30.34 84.3907 30.24 84.0173 30.24C83.6907 30.24 83.404 30.3233 83.1573 30.49C82.9107 30.65 82.7273 30.86 82.6073 31.12L81.9273 30.75C82.0273 30.5233 82.184 30.3167 82.3973 30.13C82.6173 29.9433 82.8673 29.7967 83.1473 29.69C83.4273 29.5767 83.7173 29.52 84.0173 29.52C84.4107 29.52 84.7573 29.5967 85.0573 29.75C85.364 29.9033 85.6007 30.1167 85.7673 30.39C85.9407 30.6567 86.0273 30.9667 86.0273 31.32V35H85.2773V33.93L85.3873 34.04C85.294 34.24 85.1473 34.4233 84.9473 34.59C84.754 34.75 84.524 34.88 84.2573 34.98C83.9973 35.0733 83.7107 35.12 83.3973 35.12ZM87.27 37V29.64H88.02V30.84L87.9 30.63C88.1133 30.29 88.3967 30.02 88.75 29.82C89.11 29.62 89.52 29.52 89.98 29.52C90.4867 29.52 90.9367 29.6433 91.33 29.89C91.73 30.13 92.0433 30.46 92.27 30.88C92.5033 31.3 92.62 31.78 92.62 32.32C92.62 32.8533 92.5033 33.3333 92.27 33.76C92.0433 34.18 91.73 34.5133 91.33 34.76C90.9367 35 90.4867 35.12 89.98 35.12C89.52 35.12 89.1033 35.0167 88.73 34.81C88.3633 34.5967 88.0867 34.2967 87.9 33.91L88.02 33.8V37H87.27ZM89.94 34.37C90.3 34.37 90.62 34.28 90.9 34.1C91.1867 33.92 91.41 33.6767 91.57 33.37C91.7367 33.0567 91.82 32.7067 91.82 32.32C91.82 31.9267 91.7367 31.5767 91.57 31.27C91.41 30.9633 91.1867 30.72 90.9 30.54C90.62 30.36 90.3 30.27 89.94 30.27C89.58 30.27 89.2533 30.36 88.96 30.54C88.6733 30.72 88.4433 30.9667 88.27 31.28C88.1033 31.5867 88.02 31.9333 88.02 32.32C88.02 32.7067 88.1033 33.0567 88.27 33.37C88.4433 33.6767 88.6733 33.92 88.96 34.1C89.2533 34.28 89.58 34.37 89.94 34.37ZM93.6399 35V29.64H94.3899V35H93.6399ZM93.6399 28.65V27.55H94.3899V28.65H93.6399ZM95.6251 35V29.64H96.3751V30.68L96.2051 30.64C96.3384 30.2933 96.5551 30.02 96.8551 29.82C97.1617 29.62 97.5151 29.52 97.9151 29.52C98.2951 29.52 98.6351 29.6067 98.9351 29.78C99.2417 29.9533 99.4817 30.1933 99.6551 30.5C99.8351 30.8 99.9251 31.14 99.9251 31.52V35H99.1751V31.81C99.1751 31.4833 99.1151 31.2067 98.9951 30.98C98.8817 30.7533 98.7184 30.58 98.5051 30.46C98.2984 30.3333 98.0584 30.27 97.7851 30.27C97.5117 30.27 97.2684 30.3333 97.0551 30.46C96.8417 30.58 96.6751 30.7567 96.5551 30.99C96.4351 31.2167 96.3751 31.49 96.3751 31.81V35H95.6251ZM103.597 37.2C103.231 37.2 102.891 37.1433 102.577 37.03C102.271 36.9167 102.004 36.76 101.777 36.56C101.557 36.3667 101.387 36.14 101.267 35.88L101.957 35.51C102.064 35.7633 102.254 35.9833 102.527 36.17C102.801 36.3567 103.151 36.45 103.577 36.45C103.904 36.45 104.204 36.3867 104.477 36.26C104.751 36.1333 104.971 35.9467 105.137 35.7C105.304 35.4533 105.387 35.15 105.387 34.79V33.6L105.507 33.71C105.321 34.0967 105.044 34.3967 104.677 34.61C104.311 34.8167 103.911 34.92 103.477 34.92C102.977 34.92 102.527 34.8 102.127 34.56C101.727 34.32 101.411 33.9967 101.177 33.59C100.951 33.1767 100.837 32.72 100.837 32.22C100.837 31.7133 100.951 31.2567 101.177 30.85C101.411 30.4433 101.724 30.12 102.117 29.88C102.517 29.64 102.971 29.52 103.477 29.52C103.911 29.52 104.304 29.62 104.657 29.82C105.017 30.02 105.301 30.29 105.507 30.63L105.387 30.84V29.64H106.137V34.79C106.137 35.25 106.027 35.66 105.807 36.02C105.594 36.3867 105.294 36.6733 104.907 36.88C104.527 37.0933 104.091 37.2 103.597 37.2ZM103.517 34.17C103.864 34.17 104.177 34.0833 104.457 33.91C104.737 33.73 104.961 33.4933 105.127 33.2C105.301 32.9 105.387 32.5733 105.387 32.22C105.387 31.8667 105.301 31.5433 105.127 31.25C104.961 30.95 104.737 30.7133 104.457 30.54C104.177 30.36 103.864 30.27 103.517 30.27C103.164 30.27 102.844 30.36 102.557 30.54C102.271 30.7133 102.044 30.9467 101.877 31.24C101.717 31.5333 101.637 31.86 101.637 32.22C101.637 32.5733 101.717 32.9 101.877 33.2C102.044 33.4933 102.267 33.73 102.547 33.91C102.834 34.0833 103.157 34.17 103.517 34.17ZM108.888 35V27.55H113.488V28.3H109.688V30.89H113.188V31.64H109.688V35H108.888ZM116.091 35.12C115.717 35.12 115.377 35.0333 115.071 34.86C114.764 34.68 114.521 34.4333 114.341 34.12C114.167 33.8 114.081 33.4333 114.081 33.02V29.64H114.831V32.93C114.831 33.2167 114.887 33.47 115.001 33.69C115.121 33.9033 115.284 34.07 115.491 34.19C115.704 34.31 115.947 34.37 116.221 34.37C116.494 34.37 116.737 34.31 116.951 34.19C117.164 34.0633 117.331 33.8867 117.451 33.66C117.571 33.4267 117.631 33.15 117.631 32.83V29.64H118.381V35H117.631V33.96L117.801 34C117.674 34.3467 117.457 34.62 117.151 34.82C116.844 35.02 116.491 35.12 116.091 35.12ZM121.673 35.06C121.193 35.06 120.823 34.92 120.563 34.64C120.303 34.36 120.173 33.96 120.173 33.44V30.39H119.183V29.64H119.433C119.66 29.64 119.84 29.5667 119.973 29.42C120.106 29.2667 120.173 29.0767 120.173 28.85V28.4H120.923V29.64H122.103V30.39H120.923V33.44C120.923 33.62 120.95 33.78 121.003 33.92C121.056 34.0533 121.146 34.16 121.273 34.24C121.406 34.32 121.583 34.36 121.803 34.36C121.856 34.36 121.92 34.3567 121.993 34.35C122.066 34.3433 122.13 34.3367 122.183 34.33V35C122.103 35.02 122.013 35.0333 121.913 35.04C121.813 35.0533 121.733 35.06 121.673 35.06ZM125.1 35.12C124.727 35.12 124.387 35.0333 124.08 34.86C123.773 34.68 123.53 34.4333 123.35 34.12C123.177 33.8 123.09 33.4333 123.09 33.02V29.64H123.84V32.93C123.84 33.2167 123.897 33.47 124.01 33.69C124.13 33.9033 124.293 34.07 124.5 34.19C124.713 34.31 124.957 34.37 125.23 34.37C125.503 34.37 125.747 34.31 125.96 34.19C126.173 34.0633 126.34 33.8867 126.46 33.66C126.58 33.4267 126.64 33.15 126.64 32.83V29.64H127.39V35H126.64V33.96L126.81 34C126.683 34.3467 126.467 34.62 126.16 34.82C125.853 35.02 125.5 35.12 125.1 35.12ZM128.633 35V29.64H129.383V30.52L129.283 30.39C129.409 30.1367 129.599 29.9367 129.853 29.79C130.113 29.6433 130.426 29.57 130.793 29.57H131.133V30.32H130.663C130.276 30.32 129.966 30.44 129.733 30.68C129.499 30.92 129.383 31.26 129.383 31.7V35H128.633ZM134.151 35.12C133.651 35.12 133.198 35 132.791 34.76C132.391 34.5133 132.075 34.1767 131.841 33.75C131.608 33.3233 131.491 32.84 131.491 32.3C131.491 31.76 131.605 31.2833 131.831 30.87C132.058 30.45 132.365 30.12 132.751 29.88C133.145 29.64 133.585 29.52 134.071 29.52C134.458 29.52 134.801 29.5933 135.101 29.74C135.408 29.88 135.668 30.0733 135.881 30.32C136.095 30.56 136.258 30.8333 136.371 31.14C136.485 31.44 136.541 31.75 136.541 32.07C136.541 32.1367 136.538 32.2133 136.531 32.3C136.525 32.38 136.515 32.4633 136.501 32.55H131.971V31.85H136.071L135.711 32.15C135.771 31.7833 135.728 31.4567 135.581 31.17C135.441 30.8767 135.238 30.6467 134.971 30.48C134.705 30.3067 134.405 30.22 134.071 30.22C133.738 30.22 133.428 30.3067 133.141 30.48C132.861 30.6533 132.641 30.8967 132.481 31.21C132.321 31.5167 132.258 31.8833 132.291 32.31C132.258 32.7367 132.325 33.11 132.491 33.43C132.665 33.7433 132.898 33.9867 133.191 34.16C133.491 34.3333 133.811 34.42 134.151 34.42C134.545 34.42 134.875 34.3267 135.141 34.14C135.408 33.9533 135.625 33.72 135.791 33.44L136.431 33.78C136.325 34.02 136.161 34.2433 135.941 34.45C135.721 34.65 135.458 34.8133 135.151 34.94C134.851 35.06 134.518 35.12 134.151 35.12ZM139.424 35.12C138.91 35.12 138.46 34.99 138.074 34.73C137.687 34.47 137.407 34.1167 137.234 33.67L137.864 33.37C138.017 33.6967 138.23 33.9567 138.504 34.15C138.784 34.3433 139.09 34.44 139.424 34.44C139.744 34.44 140.014 34.3633 140.234 34.21C140.454 34.05 140.564 33.8433 140.564 33.59C140.564 33.4033 140.51 33.2567 140.404 33.15C140.297 33.0367 140.174 32.95 140.034 32.89C139.894 32.83 139.77 32.7867 139.664 32.76L138.894 32.54C138.4 32.4 138.044 32.2033 137.824 31.95C137.604 31.6967 137.494 31.4033 137.494 31.07C137.494 30.7567 137.574 30.4833 137.734 30.25C137.894 30.0167 138.11 29.8367 138.384 29.71C138.657 29.5833 138.96 29.52 139.294 29.52C139.747 29.52 140.157 29.64 140.524 29.88C140.897 30.1133 141.16 30.44 141.314 30.86L140.674 31.16C140.54 30.86 140.347 30.6267 140.094 30.46C139.847 30.2867 139.57 30.2 139.264 30.2C138.964 30.2 138.724 30.2767 138.544 30.43C138.364 30.5833 138.274 30.7767 138.274 31.01C138.274 31.19 138.32 31.3333 138.414 31.44C138.507 31.5467 138.614 31.6267 138.734 31.68C138.86 31.7333 138.97 31.7733 139.064 31.8L139.954 32.06C140.387 32.1867 140.724 32.3833 140.964 32.65C141.21 32.9167 141.334 33.23 141.334 33.59C141.334 33.8833 141.25 34.1467 141.084 34.38C140.924 34.6133 140.7 34.7967 140.414 34.93C140.127 35.0567 139.797 35.12 139.424 35.12Z" fill="#1A202C"/>
</svg>
